<svg xmlns="http://www.w3.org/2000/svg" width="391" height="152" fill="none" viewBox="0 0 391 152"><circle cx="128" cy="127.5" r="5" fill="#D9D9D9" fill-opacity=".3" transform="rotate(90 128 127.5)"/><circle cx="128" cy="127.5" r="4.5" stroke="#fff" stroke-opacity=".25" transform="rotate(90 128 127.5)"/><path stroke="#fff" stroke-opacity=".25" d="M123.5 127L51.5 127C46.5294 127 42.5 122.971 42.5 118V118L42.5 9.5C42.5 4.80558 38.6944 1 34 1V1L-43 1"/><mask id="path-4-outside-1_331_2" width="229" height="24" x="148" y="115.5" fill="#000" maskUnits="userSpaceOnUse"><rect width="229" height="24" x="148" y="115.5" fill="#fff"/><path d="M150.696 116.868H165.032C168.104 116.868 170.088 117.764 171.528 119.204C173.032 120.708 173.928 122.788 173.928 124.964C173.928 126.884 173.224 128.708 172.04 130.148C170.568 131.908 168.36 133.06 165.032 133.06H155.08V138.5H149.288V118.212C149.288 117.316 149.768 116.868 150.696 116.868ZM155.08 127.748H165.16C166.44 127.748 167.176 127.364 167.656 126.724C167.976 126.308 168.168 125.796 168.168 125.188C168.168 124.548 167.976 124.004 167.624 123.556C167.144 122.98 166.408 122.596 165.16 122.596H155.496C155.24 122.596 155.08 122.724 155.08 123.044V127.748ZM191.808 138.5H187.264C183.392 138.5 180.544 137.156 178.56 134.98C176.832 133.092 175.776 130.532 175.776 127.684C175.776 124.548 177.12 121.7 179.264 119.716C181.184 117.956 183.776 116.868 187.264 116.868H191.808C195.296 116.868 197.888 117.956 199.808 119.716C201.952 121.7 203.296 124.548 203.296 127.684C203.296 130.532 202.24 133.092 200.512 134.98C198.528 137.156 195.68 138.5 191.808 138.5ZM191.808 122.596H187.264C185.312 122.596 184.096 123.14 183.168 124.004C182.176 124.932 181.568 126.276 181.568 127.716C181.568 129.028 182.08 130.244 182.912 131.14C183.84 132.164 185.216 132.804 187.264 132.804H191.808C193.856 132.804 195.232 132.164 196.16 131.14C196.992 130.244 197.504 129.028 197.504 127.716C197.504 126.276 196.896 124.932 195.904 124.004C194.976 123.14 193.76 122.596 191.808 122.596ZM211.861 130.82V138.5H206.069V118.212C206.069 117.316 206.549 116.868 207.509 116.868H222.869C225.525 116.868 227.221 117.668 228.405 118.916C229.461 120.036 230.133 121.54 230.133 123.172C230.133 124.9 229.621 126.532 228.085 127.652C229.525 128.516 230.165 129.668 230.165 132.132V136.452C230.165 137.38 230.197 137.892 230.261 138.5H224.405C224.341 138.02 224.309 137.54 224.309 137.06V132.74C224.309 131.364 223.637 130.82 221.941 130.82H211.861ZM211.861 125.892H222.101C222.901 125.892 223.381 125.604 223.733 125.188C223.989 124.868 224.149 124.484 224.149 124.068C224.149 123.62 223.989 123.172 223.669 122.852C223.349 122.5 222.837 122.276 222.101 122.276H212.341C212.021 122.276 211.861 122.468 211.861 122.756V125.892ZM232.046 116.868H256.846V122.596H247.374V138.5H241.55V122.596H232.046V116.868ZM263.003 116.868H281.851V122.596H265.787C265.179 122.596 264.891 122.916 264.891 123.556V125.892H281.755V131.268H264.891V138.5H259.099V120.836C259.099 118.148 260.411 116.868 263.003 116.868ZM299.965 138.5H295.421C291.549 138.5 288.701 137.156 286.717 134.98C284.989 133.092 283.933 130.532 283.933 127.684C283.933 124.548 285.277 121.7 287.421 119.716C289.341 117.956 291.933 116.868 295.421 116.868H299.965C303.453 116.868 306.045 117.956 307.965 119.716C310.109 121.7 311.453 124.548 311.453 127.684C311.453 130.532 310.397 133.092 308.669 134.98C306.685 137.156 303.837 138.5 299.965 138.5ZM299.965 122.596H295.421C293.469 122.596 292.253 123.14 291.325 124.004C290.333 124.932 289.725 126.276 289.725 127.716C289.725 129.028 290.237 130.244 291.069 131.14C291.997 132.164 293.373 132.804 295.421 132.804H299.965C302.013 132.804 303.389 132.164 304.317 131.14C305.149 130.244 305.661 129.028 305.661 127.716C305.661 126.276 305.053 124.932 304.061 124.004C303.133 123.14 301.917 122.596 299.965 122.596ZM336.755 138.5H321.043C315.731 138.5 314.003 136.164 314.003 131.46V116.868H319.827V130.916C319.827 132.484 320.243 132.964 321.747 132.964H336.755V138.5ZM339.038 116.868H344.862V138.5H339.038V116.868ZM363.652 138.5H359.108C355.236 138.5 352.388 137.156 350.404 134.98C348.676 133.092 347.62 130.532 347.62 127.684C347.62 124.548 348.964 121.7 351.108 119.716C353.028 117.956 355.62 116.868 359.108 116.868H363.652C367.14 116.868 369.732 117.956 371.652 119.716C373.796 121.7 375.14 124.548 375.14 127.684C375.14 130.532 374.084 133.092 372.356 134.98C370.372 137.156 367.524 138.5 363.652 138.5ZM363.652 122.596H359.108C357.156 122.596 355.94 123.14 355.012 124.004C354.02 124.932 353.412 126.276 353.412 127.716C353.412 129.028 353.924 130.244 354.756 131.14C355.684 132.164 357.06 132.804 359.108 132.804H363.652C365.7 132.804 367.076 132.164 368.004 131.14C368.836 130.244 369.348 129.028 369.348 127.716C369.348 126.276 368.74 124.932 367.748 124.004C366.82 123.14 365.604 122.596 363.652 122.596Z"/></mask><path fill="#fff" fill-opacity=".25" d="M171.528 119.204L172.235 118.497V118.497L171.528 119.204ZM172.04 130.148L172.807 130.79L172.812 130.783L172.04 130.148ZM155.08 133.06V132.06H154.08V133.06H155.08ZM155.08 138.5V139.5H156.08V138.5H155.08ZM149.288 138.5H148.288V139.5H149.288V138.5ZM155.08 127.748H154.08V128.748H155.08V127.748ZM167.656 126.724L166.863 126.114L166.855 126.124L167.656 126.724ZM167.624 123.556L168.41 122.938L168.401 122.927L168.392 122.916L167.624 123.556ZM150.695 117.868H165.032V115.868H150.695V117.868ZM165.032 117.868C167.881 117.868 169.596 118.687 170.82 119.911L172.235 118.497C170.579 116.841 168.326 115.868 165.032 115.868V117.868ZM170.82 119.911C172.142 121.233 172.928 123.061 172.928 124.964H174.928C174.928 122.515 173.921 120.183 172.235 118.497L170.82 119.911ZM172.928 124.964C172.928 126.638 172.313 128.241 171.267 129.513L172.812 130.783C174.134 129.175 174.928 127.13 174.928 124.964H172.928ZM171.272 129.506C170.011 131.015 168.096 132.06 165.032 132.06V134.06C168.623 134.06 171.124 132.801 172.807 130.79L171.272 129.506ZM165.032 132.06H155.08V134.06H165.032V132.06ZM154.08 133.06V138.5H156.08V133.06H154.08ZM155.08 137.5H149.288V139.5H155.08V137.5ZM150.288 138.5V118.212H148.288V138.5H150.288ZM150.288 118.212C150.288 117.936 150.358 117.904 150.332 117.929C150.315 117.945 150.377 117.868 150.695 117.868V115.868C150.086 115.868 149.444 116.015 148.955 116.479C148.457 116.952 148.288 117.592 148.288 118.212H150.288ZM155.08 128.748H165.16V126.748H155.08V128.748ZM165.16 128.748C166.671 128.748 167.742 128.275 168.456 127.324L166.855 126.124C166.609 126.453 166.208 126.748 165.16 126.748V128.748ZM168.448 127.334C168.9 126.747 169.168 126.021 169.168 125.188H167.168C167.168 125.571 167.051 125.869 166.863 126.114L168.448 127.334ZM169.168 125.188C169.168 124.334 168.906 123.57 168.41 122.938L166.837 124.174C167.045 124.438 167.168 124.762 167.168 125.188H169.168ZM168.392 122.916C167.685 122.068 166.642 121.596 165.16 121.596V123.596C166.173 123.596 166.602 123.892 166.855 124.196L168.392 122.916ZM165.16 121.596H155.496V123.596H165.16V121.596ZM155.496 121.596C155.213 121.596 154.81 121.667 154.484 121.993C154.159 122.319 154.08 122.73 154.08 123.044H156.08C156.08 123.044 156.08 123.087 156.057 123.155C156.033 123.228 155.985 123.321 155.899 123.407C155.717 123.589 155.522 123.596 155.496 123.596V121.596ZM154.08 123.044V127.748H156.08V123.044H154.08ZM178.56 134.98L179.299 134.306L179.298 134.305L178.56 134.98ZM179.264 119.716L178.589 118.979L178.585 118.982L179.264 119.716ZM199.808 119.716L200.487 118.982L200.484 118.979L199.808 119.716ZM200.512 134.98L199.775 134.305L199.773 134.306L200.512 134.98ZM183.168 124.004L182.487 123.272L182.485 123.274L183.168 124.004ZM182.912 131.14L183.653 130.468L183.645 130.46L182.912 131.14ZM196.16 131.14L195.427 130.459L195.419 130.468L196.16 131.14ZM195.904 124.004L196.587 123.274L196.586 123.272L195.904 124.004ZM191.808 137.5H187.264V139.5H191.808V137.5ZM187.264 137.5C183.648 137.5 181.077 136.256 179.299 134.306L177.821 135.654C180.011 138.056 183.137 139.5 187.264 139.5V137.5ZM179.298 134.305C177.738 132.6 176.776 130.281 176.776 127.684H174.776C174.776 130.783 175.927 133.584 177.823 135.655L179.298 134.305ZM176.776 127.684C176.776 124.838 177.995 122.253 179.943 120.45L178.585 118.982C176.245 121.147 174.776 124.258 174.776 127.684H176.776ZM179.94 120.453C181.66 118.877 184.004 117.868 187.264 117.868V115.868C183.548 115.868 180.709 117.035 178.589 118.979L179.94 120.453ZM187.264 117.868H191.808V115.868H187.264V117.868ZM191.808 117.868C195.068 117.868 197.413 118.877 199.133 120.453L200.484 118.979C198.364 117.035 195.524 115.868 191.808 115.868V117.868ZM199.129 120.45C201.077 122.253 202.296 124.838 202.296 127.684H204.296C204.296 124.258 202.827 121.147 200.487 118.982L199.129 120.45ZM202.296 127.684C202.296 130.281 201.335 132.6 199.775 134.305L201.25 135.655C203.146 133.584 204.296 130.783 204.296 127.684H202.296ZM199.773 134.306C197.995 136.256 195.425 137.5 191.808 137.5V139.5C195.936 139.5 199.061 138.056 201.251 135.654L199.773 134.306ZM191.808 121.596H187.264V123.596H191.808V121.596ZM187.264 121.596C185.093 121.596 183.623 122.214 182.487 123.272L183.85 124.736C184.569 124.066 185.532 123.596 187.264 123.596V121.596ZM182.485 123.274C181.294 124.388 180.568 125.996 180.568 127.716H182.568C182.568 126.556 183.059 125.476 183.851 124.734L182.485 123.274ZM180.568 127.716C180.568 129.289 181.182 130.746 182.179 131.82L183.645 130.46C182.979 129.742 182.568 128.767 182.568 127.716H180.568ZM182.171 131.812C183.322 133.081 184.987 133.804 187.264 133.804V131.804C185.446 131.804 184.359 131.247 183.653 130.468L182.171 131.812ZM187.264 133.804H191.808V131.804H187.264V133.804ZM191.808 133.804C194.086 133.804 195.751 133.081 196.901 131.812L195.419 130.468C194.714 131.247 193.627 131.804 191.808 131.804V133.804ZM196.893 131.82C197.891 130.746 198.504 129.289 198.504 127.716H196.504C196.504 128.767 196.094 129.742 195.427 130.46L196.893 131.82ZM198.504 127.716C198.504 125.996 197.779 124.388 196.587 123.274L195.221 124.734C196.014 125.476 196.504 126.556 196.504 127.716H198.504ZM196.586 123.272C195.449 122.214 193.98 121.596 191.808 121.596V123.596C193.541 123.596 194.503 124.066 195.223 124.736L196.586 123.272ZM211.861 130.82V129.82H210.861V130.82H211.861ZM211.861 138.5V139.5H212.861V138.5H211.861ZM206.069 138.5H205.069V139.5H206.069V138.5ZM228.405 118.916L229.132 118.23L229.13 118.228L228.405 118.916ZM228.085 127.652L227.496 126.844L226.276 127.733L227.57 128.509L228.085 127.652ZM230.261 138.5V139.5H231.372L231.255 138.395L230.261 138.5ZM224.405 138.5L223.414 138.632L223.529 139.5H224.405V138.5ZM211.861 125.892H210.861V126.892H211.861V125.892ZM223.733 125.188L224.496 125.834L224.505 125.823L224.514 125.813L223.733 125.188ZM223.669 122.852L222.929 123.525L222.945 123.542L222.962 123.559L223.669 122.852ZM210.861 130.82V138.5H212.861V130.82H210.861ZM211.861 137.5H206.069V139.5H211.861V137.5ZM207.069 138.5V118.212H205.069V138.5H207.069ZM207.069 118.212C207.069 117.936 207.139 117.909 207.111 117.935C207.096 117.949 207.166 117.868 207.509 117.868V115.868C206.891 115.868 206.242 116.011 205.746 116.473C205.238 116.947 205.069 117.592 205.069 118.212H207.069ZM207.509 117.868H222.869V115.868H207.509V117.868ZM222.869 117.868C225.297 117.868 226.714 118.586 227.679 119.604L229.13 118.228C227.728 116.75 225.753 115.868 222.869 115.868V117.868ZM227.677 119.602C228.575 120.554 229.133 121.819 229.133 123.172H231.133C231.133 121.261 230.346 119.518 229.132 118.23L227.677 119.602ZM229.133 123.172C229.133 124.699 228.691 125.972 227.496 126.844L228.674 128.46C230.551 127.092 231.133 125.101 231.133 123.172H229.133ZM227.57 128.509C228.167 128.868 228.529 129.24 228.764 129.727C229.012 130.24 229.165 130.974 229.165 132.132H231.165C231.165 130.826 230.997 129.752 230.565 128.857C230.121 127.936 229.442 127.3 228.599 126.795L227.57 128.509ZM229.165 132.132V136.452H231.165V132.132H229.165ZM229.165 136.452C229.165 137.412 229.198 137.959 229.266 138.605L231.255 138.395C231.195 137.825 231.165 137.348 231.165 136.452H229.165ZM230.261 137.5H224.405V139.5H230.261V137.5ZM225.396 138.368C225.338 137.931 225.309 137.495 225.309 137.06H223.309C223.309 137.585 223.344 138.109 223.414 138.632L225.396 138.368ZM225.309 137.06V132.74H223.309V137.06H225.309ZM225.309 132.74C225.309 131.903 225.102 131.064 224.39 130.487C223.735 129.956 222.849 129.82 221.941 129.82V131.82C222.729 131.82 223.027 131.956 223.131 132.041C223.18 132.08 223.309 132.201 223.309 132.74H225.309ZM221.941 129.82H211.861V131.82H221.941V129.82ZM211.861 126.892H222.101V124.892H211.861V126.892ZM222.101 126.892C223.202 126.892 223.959 126.469 224.496 125.834L222.969 124.542C222.803 124.739 222.6 124.892 222.101 124.892V126.892ZM224.514 125.813C224.885 125.348 225.149 124.75 225.149 124.068H223.149C223.149 124.218 223.092 124.388 222.952 124.563L224.514 125.813ZM225.149 124.068C225.149 123.393 224.909 122.678 224.376 122.145L222.962 123.559C223.069 123.666 223.149 123.847 223.149 124.068H225.149ZM224.409 122.179C223.854 121.569 223.043 121.276 222.101 121.276V123.276C222.631 123.276 222.844 123.431 222.929 123.525L224.409 122.179ZM222.101 121.276H212.341V123.276H222.101V121.276ZM212.341 121.276C211.978 121.276 211.569 121.39 211.257 121.718C210.952 122.038 210.861 122.433 210.861 122.756H212.861C212.861 122.791 212.849 122.946 212.705 123.098C212.553 123.258 212.384 123.276 212.341 123.276V121.276ZM210.861 122.756V125.892H212.861V122.756H210.861ZM232.046 116.868V115.868H231.046V116.868H232.046ZM256.846 116.868H257.846V115.868H256.846V116.868ZM256.846 122.596V123.596H257.846V122.596H256.846ZM247.374 122.596V121.596H246.374V122.596H247.374ZM247.374 138.5V139.5H248.374V138.5H247.374ZM241.55 138.5H240.55V139.5H241.55V138.5ZM241.55 122.596H242.55V121.596H241.55V122.596ZM232.046 122.596H231.046V123.596H232.046V122.596ZM232.046 117.868H256.846V115.868H232.046V117.868ZM255.846 116.868V122.596H257.846V116.868H255.846ZM256.846 121.596H247.374V123.596H256.846V121.596ZM246.374 122.596V138.5H248.374V122.596H246.374ZM247.374 137.5H241.55V139.5H247.374V137.5ZM242.55 138.5V122.596H240.55V138.5H242.55ZM241.55 121.596H232.046V123.596H241.55V121.596ZM233.046 122.596V116.868H231.046V122.596H233.046ZM281.851 116.868H282.851V115.868H281.851V116.868ZM281.851 122.596V123.596H282.851V122.596H281.851ZM264.891 125.892H263.891V126.892H264.891V125.892ZM281.755 125.892H282.755V124.892H281.755V125.892ZM281.755 131.268V132.268H282.755V131.268H281.755ZM264.891 131.268V130.268H263.891V131.268H264.891ZM264.891 138.5V139.5H265.891V138.5H264.891ZM259.099 138.5H258.099V139.5H259.099V138.5ZM263.003 117.868H281.851V115.868H263.003V117.868ZM280.851 116.868V122.596H282.851V116.868H280.851ZM281.851 121.596H265.787V123.596H281.851V121.596ZM265.787 121.596C265.315 121.596 264.778 121.723 264.377 122.157C263.99 122.575 263.891 123.107 263.891 123.556H265.891C265.891 123.468 265.902 123.43 265.902 123.427C265.903 123.427 265.899 123.437 265.89 123.454C265.881 123.471 265.866 123.493 265.845 123.515C265.824 123.538 265.801 123.557 265.778 123.572C265.755 123.586 265.737 123.594 265.726 123.598C265.706 123.605 265.72 123.596 265.787 123.596V121.596ZM263.891 123.556V125.892H265.891V123.556H263.891ZM264.891 126.892H281.755V124.892H264.891V126.892ZM280.755 125.892V131.268H282.755V125.892H280.755ZM281.755 130.268H264.891V132.268H281.755V130.268ZM263.891 131.268V138.5H265.891V131.268H263.891ZM264.891 137.5H259.099V139.5H264.891V137.5ZM260.099 138.5V120.836H258.099V138.5H260.099ZM260.099 120.836C260.099 119.64 260.391 118.949 260.789 118.549C261.185 118.15 261.858 117.868 263.003 117.868V115.868C261.556 115.868 260.278 116.226 259.37 117.139C258.463 118.051 258.099 119.344 258.099 120.836H260.099ZM286.717 134.98L287.455 134.306L287.454 134.305L286.717 134.98ZM287.421 119.716L286.745 118.979L286.741 118.982L287.421 119.716ZM307.965 119.716L308.644 118.982L308.64 118.979L307.965 119.716ZM308.669 134.98L307.931 134.305L307.93 134.306L308.669 134.98ZM291.324 124.004L290.643 123.272L290.641 123.274L291.324 124.004ZM291.068 131.14L291.81 130.468L291.801 130.46L291.068 131.14ZM304.316 131.14L303.584 130.459L303.576 130.468L304.316 131.14ZM304.061 124.004L304.744 123.274L304.742 123.272L304.061 124.004ZM299.965 137.5H295.421V139.5H299.965V137.5ZM295.421 137.5C291.804 137.5 289.233 136.256 287.455 134.306L285.978 135.654C288.168 138.056 291.293 139.5 295.421 139.5V137.5ZM287.454 134.305C285.894 132.6 284.932 130.281 284.932 127.684H282.932C282.932 130.783 284.083 133.584 285.979 135.655L287.454 134.305ZM284.932 127.684C284.932 124.838 286.152 122.253 288.1 120.45L286.741 118.982C284.401 121.147 282.932 124.258 282.932 127.684H284.932ZM288.096 120.453C289.816 118.877 292.161 117.868 295.421 117.868V115.868C291.704 115.868 288.865 117.035 286.745 118.979L288.096 120.453ZM295.421 117.868H299.965V115.868H295.421V117.868ZM299.965 117.868C303.224 117.868 305.569 118.877 307.289 120.453L308.64 118.979C306.52 117.035 303.681 115.868 299.965 115.868V117.868ZM307.285 120.45C309.233 122.253 310.452 124.838 310.452 127.684H312.452C312.452 124.258 310.984 121.147 308.644 118.982L307.285 120.45ZM310.452 127.684C310.452 130.281 309.491 132.6 307.931 134.305L309.406 135.655C311.302 133.584 312.452 130.783 312.452 127.684H310.452ZM307.93 134.306C306.152 136.256 303.581 137.5 299.965 137.5V139.5C304.092 139.5 307.217 138.056 309.407 135.654L307.93 134.306ZM299.965 121.596H295.421V123.596H299.965V121.596ZM295.421 121.596C293.249 121.596 291.779 122.214 290.643 123.272L292.006 124.736C292.726 124.066 293.688 123.596 295.421 123.596V121.596ZM290.641 123.274C289.45 124.388 288.725 125.996 288.725 127.716H290.725C290.725 126.556 291.215 125.476 292.008 124.734L290.641 123.274ZM288.725 127.716C288.725 129.289 289.338 130.746 290.336 131.82L291.801 130.46C291.135 129.742 290.725 128.767 290.725 127.716H288.725ZM290.328 131.812C291.478 133.081 293.143 133.804 295.421 133.804V131.804C293.602 131.804 292.515 131.247 291.809 130.468L290.328 131.812ZM295.421 133.804H299.965V131.804H295.421V133.804ZM299.965 133.804C302.242 133.804 303.907 133.081 305.057 131.812L303.576 130.468C302.87 131.247 301.783 131.804 299.965 131.804V133.804ZM305.049 131.82C306.047 130.746 306.661 129.289 306.661 127.716H304.661C304.661 128.767 304.25 129.742 303.584 130.46L305.049 131.82ZM306.661 127.716C306.661 125.996 305.935 124.388 304.744 123.274L303.377 124.734C304.17 125.476 304.661 126.556 304.661 127.716H306.661ZM304.742 123.272C303.606 122.214 302.136 121.596 299.965 121.596V123.596C301.697 123.596 302.659 124.066 303.379 124.736L304.742 123.272ZM336.755 138.5V139.5H337.755V138.5H336.755ZM314.003 116.868V115.868H313.003V116.868H314.003ZM319.827 116.868H320.827V115.868H319.827V116.868ZM336.755 132.964H337.755V131.964H336.755V132.964ZM336.755 137.5H321.043V139.5H336.755V137.5ZM321.043 137.5C318.506 137.5 317.082 136.939 316.262 136.061C315.428 135.169 315.003 133.728 315.003 131.46H313.003C313.003 133.896 313.443 135.975 314.801 137.427C316.172 138.893 318.269 139.5 321.043 139.5V137.5ZM315.003 131.46V116.868H313.003V131.46H315.003ZM314.003 117.868H319.827V115.868H314.003V117.868ZM318.827 116.868V130.916H320.827V116.868H318.827ZM318.827 130.916C318.827 131.713 318.914 132.584 319.489 133.207C320.087 133.854 320.955 133.964 321.747 133.964V131.964C321.414 131.964 321.207 131.936 321.08 131.901C321.021 131.884 320.988 131.869 320.974 131.86C320.966 131.856 320.962 131.853 320.961 131.852C320.959 131.851 320.958 131.85 320.958 131.849C320.949 131.84 320.827 131.687 320.827 130.916H318.827ZM321.747 133.964H336.755V131.964H321.747V133.964ZM335.755 132.964V138.5H337.755V132.964H335.755ZM339.038 116.868V115.868H338.038V116.868H339.038ZM344.862 116.868H345.862V115.868H344.862V116.868ZM344.862 138.5V139.5H345.862V138.5H344.862ZM339.038 138.5H338.038V139.5H339.038V138.5ZM339.038 117.868H344.862V115.868H339.038V117.868ZM343.862 116.868V138.5H345.862V116.868H343.862ZM344.862 137.5H339.038V139.5H344.862V137.5ZM340.038 138.5V116.868H338.038V138.5H340.038ZM350.404 134.98L351.143 134.306L351.142 134.305L350.404 134.98ZM351.108 119.716L350.432 118.979L350.429 118.982L351.108 119.716ZM371.652 119.716L372.331 118.982L372.328 118.979L371.652 119.716ZM372.356 134.98L371.618 134.305L371.617 134.306L372.356 134.98ZM355.012 124.004L354.331 123.272L354.329 123.274L355.012 124.004ZM354.756 131.14L355.497 130.468L355.489 130.46L354.756 131.14ZM368.004 131.14L367.271 130.459L367.263 130.468L368.004 131.14ZM367.748 124.004L368.431 123.274L368.429 123.272L367.748 124.004ZM363.652 137.5H359.108V139.5H363.652V137.5ZM359.108 137.5C355.492 137.5 352.921 136.256 351.143 134.306L349.665 135.654C351.855 138.056 354.98 139.5 359.108 139.5V137.5ZM351.142 134.305C349.582 132.6 348.62 130.281 348.62 127.684H346.62C346.62 130.783 347.77 133.584 349.666 135.655L351.142 134.305ZM348.62 127.684C348.62 124.838 349.839 122.253 351.787 120.45L350.429 118.982C348.089 121.147 346.62 124.258 346.62 127.684H348.62ZM351.784 120.453C353.504 118.877 355.848 117.868 359.108 117.868V115.868C355.392 115.868 352.552 117.035 350.432 118.979L351.784 120.453ZM359.108 117.868H363.652V115.868H359.108V117.868ZM363.652 117.868C366.912 117.868 369.256 118.877 370.976 120.453L372.328 118.979C370.208 117.035 367.368 115.868 363.652 115.868V117.868ZM370.973 120.45C372.921 122.253 374.14 124.838 374.14 127.684H376.14C376.14 124.258 374.671 121.147 372.331 118.982L370.973 120.45ZM374.14 127.684C374.14 130.281 373.178 132.6 371.618 134.305L373.094 135.655C374.99 133.584 376.14 130.783 376.14 127.684H374.14ZM371.617 134.306C369.839 136.256 367.268 137.5 363.652 137.5V139.5C367.78 139.5 370.905 138.056 373.095 135.654L371.617 134.306ZM363.652 121.596H359.108V123.596H363.652V121.596ZM359.108 121.596C356.937 121.596 355.467 122.214 354.331 123.272L355.693 124.736C356.413 124.066 357.375 123.596 359.108 123.596V121.596ZM354.329 123.274C353.137 124.388 352.412 125.996 352.412 127.716H354.412C354.412 126.556 354.903 125.476 355.695 124.734L354.329 123.274ZM352.412 127.716C352.412 129.289 353.026 130.746 354.023 131.82L355.489 130.46C354.822 129.742 354.412 128.767 354.412 127.716H352.412ZM354.015 131.812C355.165 133.081 356.831 133.804 359.108 133.804V131.804C357.289 131.804 356.203 131.247 355.497 130.468L354.015 131.812ZM359.108 133.804H363.652V131.804H359.108V133.804ZM363.652 133.804C365.929 133.804 367.595 133.081 368.745 131.812L367.263 130.468C366.557 131.247 365.471 131.804 363.652 131.804V133.804ZM368.737 131.82C369.734 130.746 370.348 129.289 370.348 127.716H368.348C368.348 128.767 367.938 129.742 367.271 130.46L368.737 131.82ZM370.348 127.716C370.348 125.996 369.623 124.388 368.431 123.274L367.065 124.734C367.857 125.476 368.348 126.556 368.348 127.716H370.348ZM368.429 123.272C367.293 122.214 365.823 121.596 363.652 121.596V123.596C365.385 123.596 366.347 124.066 367.067 124.736L368.429 123.272Z" mask="url(#path-4-outside-1_331_2)"/></svg>